<svg width="292" height="326" viewBox="0 0 292 326" fill="none" xmlns="http://www.w3.org/2000/svg">
<path d="M2.38154 11.9389C0 16.6163 0 22.7393 0 34.9852V257.221C0 269.467 0 275.59 2.38154 280.267C4.47641 284.382 7.81909 287.727 11.9305 289.823C16.6045 292.206 22.7232 292.206 34.9605 292.206C34.9605 292.206 101.306 292.206 108.259 292.206C115.211 292.206 135.789 319.818 135.789 319.818C138.935 322.967 140.508 324.541 142.323 325.131C143.918 325.65 145.637 325.65 147.233 325.131C149.047 324.541 150.621 322.967 153.767 319.818C153.767 319.818 173.81 292.206 180.762 292.206C187.714 292.206 257.039 292.206 257.039 292.206C269.277 292.206 275.395 292.206 280.07 289.823C284.181 287.727 287.524 284.382 289.618 280.267C292 275.59 292 269.467 292 257.221V34.9852C292 22.7393 292 16.6163 289.618 11.9389C287.524 7.82461 284.181 4.47957 280.07 2.38323C275.395 0 269.277 0 257.039 0H34.9605C22.7232 0 16.6045 0 11.9305 2.38323C7.81909 4.47957 4.47641 7.82461 2.38154 11.9389Z" fill="white"/>
</svg>
